HIERARCHY
ROOT Hips
{
  OFFSET 43.0842 91.1655 101.099
  CHANNELS 6 Xposition Yposition Zposition Zrotation Xrotation Yrotation
  JOINT LeftUpLeg
  {
    OFFSET 8.64259 1.95398 -2.38835
    CHANNELS 3 Zrotation Xrotation Yrotation
    JOINT LeftLeg
    {
      OFFSET 43.7702 0 0
      CHANNELS 3 Zrotation Xrotation Yrotation
      JOINT LeftFoot
      {
        OFFSET 40.6238 0 0
        CHANNELS 3 Zrotation Xrotation Yrotation
        JOINT LeftToeBase
        {
          OFFSET 12.7242 0 0
          CHANNELS 3 Zrotation Xrotation Yrotation
          End Site
          {
            OFFSET 0 0 0
          }
        }
      }
    }
  }
  JOINT RightUpLeg
  {
    OFFSET -8.2249 1.95398 -2.59336
    CHANNELS 3 Zrotation Xrotation Yrotation
    JOINT RightLeg
    {
      OFFSET 43.5653 0 0
      CHANNELS 3 Zrotation Xrotation Yrotation
      JOINT RightFoot
      {
        OFFSET 40.6238 0 0
        CHANNELS 3 Zrotation Xrotation Yrotation
        JOINT RightToeBase
        {
          OFFSET 12.7242 0 0
          CHANNELS 3 Zrotation Xrotation Yrotation
          End Site
          {
            OFFSET 0 0 0
          }
        }
      }
    }
  }
  JOINT Spine
  {
    OFFSET 0.165834 0.87714 6.61349
    CHANNELS 3 Zrotation Xrotation Yrotation
    JOINT Spine1
    {
      OFFSET 7.38963 1.71661e-005 0
      CHANNELS 3 Zrotation Xrotation Yrotation
      JOINT Spine2
      {
        OFFSET 11.9445 1.14441e-005 0
        CHANNELS 3 Zrotation Xrotation Yrotation
        JOINT Spine3
        {
          OFFSET 14.7254 4.19617e-005 0
          CHANNELS 3 Zrotation Xrotation Yrotation
          JOINT Spine4
          {
            OFFSET 10.9679 0 0
            CHANNELS 3 Zrotation Xrotation Yrotation
            JOINT RightShoulder
            {
              OFFSET 2.46616 -1.6653 3.69651
              CHANNELS 3 Zrotation Xrotation Yrotation
              JOINT RightArm
              {
                OFFSET 13.0012 0 0
                CHANNELS 3 Zrotation Xrotation Yrotation
                JOINT RightForeArm
                {
                  OFFSET 28.7848 1.52588e-005 0
                  CHANNELS 3 Zrotation Xrotation Yrotation
                  JOINT RightHand
                  {
                    OFFSET 26.5688 1.52588e-005 0
                    CHANNELS 3 Zrotation Xrotation Yrotation
                    End Site
                    {
                      OFFSET 0 0 0
                    }
                  }
                }
              }
            }
            JOINT LeftShoulder
            {
              OFFSET 2.38034 -1.29275 -3.7523
              CHANNELS 3 Zrotation Xrotation Yrotation
              JOINT LeftArm
              {
                OFFSET 16.3182 6.10351e-005 0
                CHANNELS 3 Zrotation Xrotation Yrotation
                JOINT LeftForeArm
                {
                  OFFSET 27.0901 0 0
                  CHANNELS 3 Zrotation Xrotation Yrotation
                  JOINT LeftHand
                  {
                    OFFSET 24.5451 1.52588e-005 0
                    CHANNELS 3 Zrotation Xrotation Yrotation
                    End Site
                    {
                      OFFSET 0 0 0
                    }
                  }
                }
              }
            }
            JOINT Neck
            {
              OFFSET 5.0226 -0.0266342 0
              CHANNELS 3 Zrotation Xrotation Yrotation
              JOINT Head
              {
                OFFSET 6.69364 2.86102e-005 0
                CHANNELS 3 Zrotation Xrotation Yrotation
                End Site
                {
                  OFFSET 0 0 0
                }
              }
            }
          }
        }
      }
    }
  }
}
MOTION
Frames:	15
Frame Time:	0.0333333
47.5927 90.3697 125.442 98.7055 -59.6349 99.7103 -175.609 12.8335 92.9545 -41.7413 31.5164 0.792595 65.4461 9.29689 21.9781 34.0435 2.02588 8.51091 171.327 17.9122 76.937 -19.9546 7.55277 0.140633 63.296 -1.13144 -4.64595 25.103 1.83563 0.660274 0.452945 7.38476 -89.635 12.1007 1.07299 0.610093 0.430066 1.09879 0.562274 -22.1061 0.840025 0.90437 -2.09348 0.840012 0.904359 95.3708 -47.6787 -92.8646 38.0569 58.1325 -46.5436 -14.8272 -8.86055 -134.516 -6.84747 0.0112109 9.67707 -94.7869 -51.349 72.008 -5.6559 9.96609 -50.5268 16.0144 -1.18149 -113.372 10.5181 0.76248 2.59808 -24.1056 -11.9347 -8.75211 2.22827 -13.245 -8.47012 
47.5915 90.3732 125.459 98.6107 -59.7435 99.738 -175.608 12.8191 93.048 -41.675 31.4138 0.842413 65.5302 9.48034 21.9148 34.0352 1.92763 8.65151 171.469 17.9599 77.0946 -19.9263 8.06197 0.0403993 63.2596 -1.17625 -4.36899 25.035 1.67823 1.14104 0.473381 7.38537 -89.6468 12.1003 1.108 0.58283 0.429705 1.13258 0.533503 -22.107 0.881604 0.888895 -2.09436 0.881603 0.888898 95.4252 -47.7339 -92.7702 39.2792 58.8421 -47.8764 -14.1641 -10.2447 -134.639 -8.33888 -0.529787 9.57792 -94.7932 -51.3412 71.9966 -6.44094 9.30085 -50.2785 16.4746 -0.759872 -113.924 9.43823 0.531741 3.0629 -23.9716 -11.9923 -8.93433 2.17576 -13.2903 -8.30702 
47.5762 90.3693 125.482 98.5026 -59.8392 99.7907 -175.498 12.9551 93.2478 -41.6678 31.2958 0.772213 65.4302 9.20152 21.7616 34.8345 3.24128 8.40025 171.651 17.962 77.2918 -19.953 7.70291 -0.0355215 63.2225 -1.09557 -4.65111 24.9032 1.9666 0.619545 0.481244 7.37984 -89.6582 12.1115 1.11833 0.558768 0.440957 1.14181 0.509011 -22.0959 0.898674 0.869047 -2.08329 0.898682 0.869047 95.4212 -48.1681 -92.7165 44.4074 61.4169 -53.3417 -12.3917 -15.0733 -135 -10.1564 -1.19128 9.36787 -94.5873 -51.124 72.2351 -8.11506 9.07351 -49.5569 17.5076 -0.561182 -114.331 8.4109 0.524987 1.6332 -23.0433 -11.8323 -8.72331 0.898978 -12.9658 -8.86294 
47.5822 90.3843 125.486 98.5084 -59.7388 99.8067 -175.549 12.9209 93.2362 -41.769 31.6007 0.854653 65.4941 9.34499 21.8332 34.5878 2.80329 8.53809 171.601 17.8745 77.298 -19.902 7.62875 0.000406681 63.1823 -1.09128 -4.65431 25.0376 2.06268 0.199285 0.430229 7.35886 -89.6418 12.1534 1.02472 0.601244 0.482735 1.0502 0.555554 -22.0535 0.796664 0.881423 -2.04081 0.796646 0.881417 95.3748 -48.3077 -92.7706 44.3 61.1574 -53.1523 -12.648 -15.0198 -134.958 -9.72562 -1.02552 9.61933 -94.006 -50.3693 72.8755 -8.49761 11.6108 -49.1478 17.5756 -2.11125 -114.228 8.96648 0.80153 0.0563089 -22.7695 -11.6756 -8.38252 0.234872 -12.7245 -9.13145 
47.5857 90.4012 125.497 98.4023 -59.7509 99.7059 -175.523 12.9867 93.2264 -41.7121 31.2473 0.812055 65.4892 9.26533 21.5895 34.5657 2.78377 8.51655 171.55 17.8937 77.2785 -19.7819 7.96147 0.0180092 63.25 -1.26064 -4.47645 24.8803 2.03561 0.485009 0.441528 7.35272 -89.633 12.1655 1.05136 0.61582 0.4949 1.07745 0.568938 -22.0414 0.817674 0.903328 -2.02871 0.817678 0.903321 95.3567 -48.309 -92.7992 44.119 61.3264 -52.8744 -12.3533 -15.2027 -135.047 -10.1323 -1.18773 9.25174 -94.0898 -50.4324 72.7698 -8.43833 11.2568 -49.1624 17.4045 -1.62856 -114.295 8.95005 0.801639 0.0197567 -22.8417 -11.6534 -8.86417 0.487395 -12.7272 -8.41707 
47.5918 90.3756 125.534 98.4581 -59.8179 99.8261 -175.538 12.9416 93.2987 -41.7628 31.238 0.855912 65.5314 9.34756 21.574 34.6991 2.96892 8.53156 171.624 17.8469 77.3734 -19.7868 7.71906 -0.00310816 63.1624 -1.13397 -4.76859 25.1926 1.85195 0.495307 0.442605 7.35255 -89.6255 12.1658 1.05704 0.630091 0.495142 1.08376 0.582947 -22.0411 0.818796 0.918645 -2.02843 0.818805 0.918639 95.1126 -48.5815 -93.1462 43.2304 61.2214 -52.2648 -12.2471 -14.8708 -134.948 -10.1846 -1.20414 9.2959 -93.8574 -50.2404 73.059 -8.60167 11.9325 -49.2365 17.8681 -2.26861 -113.995 8.21016 0.63118 0.529215 -22.9209 -11.63 -8.83024 0.483518 -12.7166 -8.61269 
47.5937 90.3975 125.561 98.4114 -59.7162 99.766 -175.593 12.8554 93.2539 -41.65 31.0868 0.916129 65.5416 9.41638 21.4782 34.6577 2.94401 8.4706 171.621 17.8894 77.3502 -19.997 7.78938 -0.0240671 63.179 -1.12504 -4.50989 25.3025 1.88789 0.252901 0.440729 7.3506 -89.6447 12.1699 1.04427 0.593233 0.499293 1.06936 0.546694 -22.037 0.817709 0.879654 -2.02439 0.817698 0.879653 95.2019 -48.2236 -93.0559 42.9682 61.009 -51.8212 -12.1156 -14.6783 -134.885 -10.3602 -1.27578 9.07565 -94.1196 -50.5281 72.7528 -8.42832 11.6511 -49.1637 17.7022 -1.96779 -114.194 9.16631 0.794255 0.354071 -22.9261 -11.7248 -8.46016 0.438989 -12.7977 -8.86881 
47.5768 90.3819 125.607 98.2306 -59.6257 99.6768 -175.541 13.0015 93.3984 -41.6636 31.0577 0.881878 65.5417 9.41438 21.3798 34.8211 3.19003 8.45488 171.617 17.933 77.4086 -20.0192 8.04877 -0.000209642 63.3012 -1.2075 -4.68789 25.2213 1.90013 0.336989 0.403233 7.32979 -89.6252 12.2114 0.97905 0.638822 0.540694 1.00621 0.595111 -21.9951 0.741792 0.903531 -1.98243 0.741785 0.903527 95.0827 -48.5982 -93.1907 42.2629 60.4718 -51.2863 -12.1004 -14.4795 -134.826 -10.3854 -1.2811 9.16094 -93.7424 -50.2528 73.232 -8.5848 11.9407 -48.9918 17.8233 -2.22661 -114.28 8.42991 0.56797 1.32421 -22.9888 -11.5774 -8.64352 0.409167 -12.6552 -8.66244 
47.591 90.3583 125.68 98.3224 -59.5674 99.7428 -175.61 12.9061 93.3821 -41.7802 31.2001 0.975034 65.6611 9.58046 21.6121 34.6709 3.01282 8.38523 171.437 17.8514 77.4374 -20.1141 7.97716 0.103479 63.4233 -1.525 -4.70232 25.5837 1.78779 0.100772 0.397415 7.33117 -89.6221 12.2087 0.968883 0.646113 0.537937 0.996397 0.602841 -21.9978 0.729907 0.907426 -1.98512 0.729916 0.907433 95.0559 -48.4979 -93.2473 43.0102 60.821 -51.8975 -11.8626 -15.0769 -134.721 -10.3064 -1.25695 9.07159 -93.6895 -50.1382 73.279 -8.54224 12.0516 -48.8847 17.7126 -2.39619 -114.302 8.73797 0.740552 0.293822 -23.0861 -11.6004 -8.47541 0.536221 -12.6947 -8.87466 
47.516 90.3054 125.768 98.413 -59.3973 99.8974 -175.648 12.8861 93.5144 -41.9545 30.8683 1.11016 65.7578 9.71866 21.3053 34.8352 3.32373 8.25743 171.32 18.0245 77.5076 -20.7924 8.54872 0.143858 63.8954 -2.08896 -4.43369 25.6273 1.63594 0.414215 0.431663 7.37838 -89.6476 12.1144 1.02477 0.590157 0.443765 1.04974 0.544479 -22.0925 0.800023 0.870857 -2.07984 0.80002 0.870866 95.2899 -48.0658 -92.9389 43.7259 60.9338 -52.367 -12.0538 -15.0083 -134.917 -10.7545 -1.41504 9.06525 -94.171 -50.3853 72.6371 -8.63569 10.9635 -49.3561 17.2392 -1.0505 -114.19 8.87822 0.560368 1.98209 -22.7851 -11.8806 -8.58962 0.545809 -12.9576 -8.86812 
47.3869 90.2033 125.845 98.5569 -59.3799 100.107 -175.654 12.8554 93.7377 -42.1785 31.2025 1.24134 65.8444 9.98708 21.3265 34.9965 3.50563 8.3462 171.36 18.6919 77.6906 -22.277 9.08418 0.116593 64.1654 -2.26515 -4.22997 26.041 1.42864 0.343011 0.448437 7.38932 -89.6487 12.0925 1.05756 0.584653 0.421894 1.08227 0.537529 -22.1146 0.832958 0.875473 -2.10192 0.83297 0.875467 95.2434 -48.0861 -93.0095 43.0118 60.7165 -51.7998 -12.215 -14.5046 -134.877 -11.2397 -1.58863 8.99187 -94.202 -50.3481 72.5813 -8.91449 10.9137 -49.0844 17.5861 -1.09407 -114.29 8.45961 0.508135 1.85029 -22.9404 -11.8867 -8.88207 0.784975 -13.0109 -8.81611 
47.2173 90.0344 125.977 98.6186 -59.0237 100.302 -175.686 13.0961 94.0738 -42.8309 31.3889 1.45087 66.0025 10.273 21.0746 35.2576 3.69642 8.67464 171.54 19.9009 77.9058 -25.1814 8.88629 -0.103619 63.9574 -2.06818 -3.89349 27.9751 0.593994 -0.374778 0.435228 7.41281 -89.6738 12.0459 1.01931 0.539265 0.375242 1.04207 0.493866 -22.1612 0.810142 0.82069 -2.14859 0.81013 0.820683 95.3268 -47.9108 -92.9017 43.3321 60.8927 -52.4315 -12.4654 -14.6042 -134.98 -11.4765 -1.66169 9.3224 -94.3713 -50.5462 72.3882 -8.61931 11.0345 -48.9251 17.207 -1.00804 -114.395 8.06371 0.383119 2.3342 -22.7451 -12.0604 -8.51245 0.849991 -13.1687 -9.22803 
46.8014 89.691 126.129 98.6205 -58.714 100.555 -175.488 13.7973 94.7045 -44.0458 31.1151 1.53418 66.483 10.9195 20.8454 35.3545 3.98931 8.40176 171.889 22.374 78.033 -30.4627 6.0492 -0.385017 63.3993 -1.63836 -4.28248 30.8136 -0.544229 -1.73401 0.417487 7.44065 -89.6886 11.9904 0.976957 0.515057 0.319749 0.998687 0.471554 -22.2166 0.777014 0.78487 -2.20397 0.777009 0.784874 95.3144 -47.9275 -92.9194 43.2449 60.7614 -52.8553 -13.3212 -14.0368 -135.131 -11.7434 -1.7396 9.91456 -94.3617 -50.5544 72.4045 -8.18436 11.406 -48.3194 17.3976 -1.61654 -114.783 7.12642 0.169345 2.76071 -22.4242 -12.0476 -8.28665 1.00484 -13.1393 -9.57335 
46.1437 89.1717 126.198 97.9436 -58.8816 100.177 -175.124 15.2983 95.4886 -45.7698 31.7001 1.42073 66.7021 11.1586 21.0911 35.7179 4.56811 8.29644 172.708 26.7813 78.0067 -38.2657 3.40534 -1.07824 62.5459 -1.18445 -2.08359 33.5682 -2.15746 -1.67413 0.461067 7.43738 -89.6602 11.9965 1.07706 0.560785 0.325882 1.1007 0.512829 -22.2108 0.858724 0.858565 -2.19814 0.85874 0.858566 95.4114 -48.1143 -92.739 42.7201 60.4536 -53.4341 -13.7809 -13.3997 -134.812 -12.0976 -1.85807 10.2669 -93.9098 -49.8961 72.8862 -8.49939 12.7166 -48.0228 18.5479 -3.14463 -114.88 4.60692 -0.315823 3.08001 -22.2065 -12.1986 -9.18084 1.73829 -13.3526 -9.07644 
45.4132 88.6438 126.375 97.3252 -58.3421 99.8925 -174.827 16.9251 96.3493 -47.757 32.2922 1.503 66.8815 11.7439 21.0745 35.9847 4.88366 8.4167 174.168 30.5316 77.5361 -46.3558 0.207645 -2.52189 62.9669 -1.97848 1.53578 33.2403 -1.56087 -2.9603 0.470678 7.46487 -89.6471 11.9413 1.10224 0.584815 0.270729 1.12691 0.53573 -22.2659 0.875522 0.889052 -2.2533 0.875532 0.889054 95.7816 -47.3334 -92.2554 44.1116 60.7115 -55.3415 -14.1552 -13.3544 -134.761 -11.6089 -1.65446 11.1426 -93.7306 -49.3757 73.0076 -7.86034 13.5321 -48.396 18.3795 -3.63332 -114.701 3.18502 -0.730191 4.05941 -21.7499 -12.45 -9.69835 2.28559 -13.6202 -8.96122 
